<?xml version="1.0" standalone="no"?>
<!DOCTYPE svg PUBLIC "-//W3C//DTD SVG 20010904//EN"
 "http://www.w3.org/TR/2001/REC-SVG-20010904/DTD/svg10.dtd">
<svg version="1.0" xmlns="http://www.w3.org/2000/svg"
 width="700.000000pt" height="700.000000pt" viewBox="0 0 700.000000 700.000000"
 preserveAspectRatio="xMidYMid meet">
<metadata>
Created by potrace 1.14, written by Peter Selinger 2001-2017
</metadata>
<g transform="translate(0.000000,700.000000) scale(0.100000,-0.100000)"
fill="#000000" stroke="none">
<path d="M3378 6415 c-2 -1 -48 -5 -103 -9 -55 -3 -120 -9 -145 -12 -45 -6
-278 -48 -315 -58 -410 -103 -772 -278 -1105 -535 -224 -173 -453 -416 -621
-661 -241 -350 -429 -835 -475 -1225 -4 -27 -8 -52 -9 -55 -8 -13 -19 -227
-19 -360 0 -225 11 -345 50 -545 155 -815 649 -1523 1360 -1953 324 -195 731
-341 1079 -387 28 -4 61 -9 75 -11 108 -17 415 -23 589 -11 57 4 107 9 110 11
3 2 33 6 66 10 33 3 114 18 180 31 160 34 146 30 260 66 849 266 1528 893
1855 1713 91 229 144 432 184 706 26 176 26 538 1 730 -88 660 -372 1238 -834
1700 -69 70 -164 156 -211 194 -47 37 -94 75 -105 84 -52 43 -262 176 -364
231 -346 185 -717 297 -1121 336 -64 7 -377 15 -382 10z m282 -1759 c410 -51
786 -353 933 -751 46 -126 65 -220 72 -355 l2 -45 583 -3 583 -2 -6 -140 c-4
-78 -8 -144 -10 -148 -3 -4 -7 -30 -11 -59 -7 -59 -28 -162 -51 -248 -9 -33
-18 -67 -20 -75 -2 -8 -15 -46 -28 -85 -92 -261 -205 -469 -381 -695 -63 -81
-270 -290 -356 -359 -36 -29 -72 -58 -81 -65 -82 -66 -267 -174 -448 -261
-134 -64 -432 -150 -607 -174 -522 -73 -1042 27 -1493 287 -90 51 -219 137
-268 179 -12 10 -37 29 -55 43 -56 42 -282 271 -340 345 -185 236 -315 479
-402 756 -69 218 -113 497 -107 677 l1 22 580 0 c457 0 580 3 581 13 13 158
19 195 44 292 135 510 612 870 1140 859 50 -1 115 -5 145 -8z"/>
<path d="M3372 4219 c-29 -5 -87 -22 -130 -39 -384 -148 -569 -573 -415 -956
74 -186 229 -335 423 -408 184 -69 403 -56 580 34 136 69 253 188 323 325 91
181 99 407 22 597 -92 226 -290 392 -530 442 -74 15 -199 18 -273 5z"/>
</g>
</svg>
